<svg viewBox="0 0 260 180" xmlns="http://www.w3.org/2000/svg" fill="none">
<rect width="260" height="180" fill="var(--color-bg)"></rect>
<path d="M50 72.4817L55.15 82.9184L66.6667 84.5917L58.3333 92.715L60.3 104.185L50 98.7684L39.7 104.185L41.6667 92.715L33.3333 84.5917L44.85 82.9184L50 72.4817Z" fill="var(--color-primary)"></path>
<path d="M90 72.4817L95.15 82.9184L106.667 84.5917L98.3333 92.715L100.3 104.185L90 98.7684L79.7 104.185L81.6667 92.715L73.3333 84.5917L84.85 82.9184L90 72.4817Z" fill="var(--color-primary)"></path>
<path d="M130 72.4817L135.15 82.9184L146.667 84.5917L138.333 92.715L140.3 104.185L130 98.7684L119.7 104.185L121.667 92.715L113.333 84.5917L124.85 82.9184L130 72.4817Z" fill="var(--color-primary)"></path>
<path d="M170 72.4817L175.15 82.9184L186.667 84.5917L178.333 92.715L180.3 104.185L170 98.7684L159.7 104.185L161.667 92.715L153.333 84.5917L164.85 82.9184L170 72.4817Z" fill="var(--color-contrast-low)"></path>
<path d="M210 72.4817L215.15 82.9184L226.667 84.5917L218.333 92.715L220.3 104.185L210 98.7684L199.7 104.185L201.667 92.715L193.333 84.5917L204.85 82.9184L210 72.4817Z" fill="var(--color-contrast-low)"></path>
</svg>