<svg viewBox="0 0 260 180" xmlns="http://www.w3.org/2000/svg" fill="none">
<rect width="260" height="180" fill="var(--color-bg)"></rect>
<rect x="8" y="40" width="76" height="100" rx="4" fill="var(--color-contrast-lower)"></rect>
<rect x="17" y="72" width="58" height="6" fill="var(--color-contrast-medium)"></rect>
<rect x="17" y="82" width="52" height="6" fill="var(--color-contrast-medium)"></rect>
<rect x="17" y="92" width="31" height="6" fill="var(--color-contrast-medium)"></rect>
<path d="M17 57L22 46H25L21 57H25V66H17V57Z" fill="var(--color-contrast-low)"></path>
<path d="M29 57L34 46H37L33 57H37V66H29V57Z" fill="var(--color-contrast-low)"></path>
<circle cx="46" cy="115" r="8" fill="var(--color-contrast-high)"></circle>
<rect x="29" y="127" width="34" height="5" fill="var(--color-contrast-medium)"></rect>
<rect x="92" y="40" width="76" height="100" rx="4" fill="var(--color-contrast-lower)"></rect>
<rect x="101" y="72" width="58" height="6" fill="var(--color-contrast-medium)"></rect>
<rect x="101" y="82" width="52" height="6" fill="var(--color-contrast-medium)"></rect>
<rect x="101" y="92" width="31" height="6" fill="var(--color-contrast-medium)"></rect>
<path d="M101 57L106 46H109L105 57H109V66H101V57Z" fill="var(--color-contrast-low)"></path>
<path d="M113 57L118 46H121L117 57H121V66H113V57Z" fill="var(--color-contrast-low)"></path>
<circle cx="130" cy="115" r="8" fill="var(--color-contrast-high)"></circle>
<rect x="113" y="127" width="34" height="5" fill="var(--color-contrast-medium)"></rect>
<rect x="176" y="40" width="76" height="100" rx="4" fill="var(--color-contrast-lower)"></rect>
<rect x="185" y="72" width="58" height="6" fill="var(--color-contrast-medium)"></rect>
<rect x="185" y="82" width="52" height="6" fill="var(--color-contrast-medium)"></rect>
<rect x="185" y="92" width="31" height="6" fill="var(--color-contrast-medium)"></rect>
<path d="M185 57L190 46H193L189 57H193V66H185V57Z" fill="var(--color-contrast-low)"></path>
<path d="M197 57L202 46H205L201 57H205V66H197V57Z" fill="var(--color-contrast-low)"></path>
<circle cx="214" cy="115" r="8" fill="var(--color-contrast-high)"></circle>
<rect x="197" y="127" width="34" height="5" fill="var(--color-contrast-medium)"></rect>
</svg>
